<?xml version="1.0" encoding="iso-8859-1"?>
<!-- Generator: Adobe Illustrator 19.0.0, SVG Export Plug-In . SVG Version: 6.00 Build 0)  -->
<svg version="1.1" id="Layer_1" xmlns="http://www.w3.org/2000/svg" xmlns:xlink="http://www.w3.org/1999/xlink" x="0px" y="0px"
	 viewBox="0 0 507.865 507.865" style="enable-background:new 0 0 507.865 507.865;" xml:space="preserve">
<g transform="translate(1)">
	<g>
		<g>
			<path d="M506.304,431.159l-9.387-23.04c-5.973-14.507-14.507-26.453-25.6-37.547L327.104,226.359
				c0-0.853-0.853-0.853-0.853-0.853c-0.853,0-19.627-15.36-25.6-43.52c-3.413-16.213-8.533-29.867-16.213-40.96l-6.933-10.133
				l6.933-6.933c1.707-1.707,3.413-3.413,3.413-5.973s-0.853-4.267-2.56-5.973l-72.533-72.533c-3.413-3.413-8.533-3.413-11.947,0
				l-5.973,5.973l-29.867-29.867c-1.707-2.56-5.12-3.413-7.68-2.56s-5.12,3.413-5.973,5.973l-11.093,32.427l-32.427,11.093
				c-3.413,0.853-5.12,3.413-5.973,5.973c0,2.56,0.853,5.973,2.56,7.68l29.867,29.867l-5.12,5.12l-82.725,47.271L4.544,176.012
				c-2.56,0.853-4.267,3.413-5.12,5.973c-0.853,3.413-5.12,36.693,50.347,92.16c1.707,1.707,41.813,46.08,89.6,51.2h0.853
				c3.413,0,5.973-1.707,7.68-5.12l16.726-39.824c0.8-0.974,1.28-2.052,1.517-3.195l44.382-77.668l21.002,41.326
				c6.827,14.507,16.213,27.307,27.307,38.4l113.493,113.493c0,0,39.253,33.28,39.253,76.8c0,8.533,4.267,16.213,11.093,20.48
				c5.973,3.413,11.947,5.12,17.067,5.12c5.973,0,11.093-2.56,17.067-7.68l11.947-11.947c1.707-1.707,2.56-3.413,2.56-5.973v-27.307
				h27.307c2.56,0,5.12-0.853,6.827-3.413C507.158,437.133,507.158,433.719,506.304,431.159z M125.718,73.612l23.04-7.68
				c2.56-0.853,4.267-2.56,5.12-5.12l7.68-23.04l20.48,20.48l-35.84,35.84L125.718,73.612z M135.104,308.279
				c-39.253-7.68-72.533-44.373-73.387-45.227c-38.4-38.4-45.227-63.147-46.08-72.533l25.503-9.872
				c2.308,14.015,10.941,36.076,38.497,63.632c0.75,1.5,26.564,30.688,62.939,37.727c1.196,0.247,2.402,0.475,3.621,0.673
				L135.104,308.279z M199.104,186.252l-45.517,79.234c-9.488-0.597-18.481-3.419-26.531-7.185l13.169-13.169
				c3.413-3.413,3.413-8.533,0-11.947s-8.533-3.413-11.947,0l-16.391,16.391c-5.922-4.049-10.794-8.134-14.282-11.318l42.619-41.767
				c3.413-3.413,3.413-8.533,0-11.947s-8.533-3.413-11.947,0l-42.542,41.692c-4.206-4.569-7.803-8.917-10.871-13.025l22.693-22.693
				c3.413-3.413,3.413-8.533,0-11.947s-8.533-3.413-11.947,0l-20.112,20.112c-3.331-6.178-5.351-11.521-6.56-15.928
				c-1.243-4.933-1.488-8.656-1.488-11.011l81.067-46.08c0.853-0.853,0.853-0.853,1.707-1.707l11.947-11.947l48.64-48.64
				l5.973-5.973l60.587,60.587l-4.285,4.285c-0.954,0.416-1.826,0.972-2.542,1.689l-53.76,54.613l-5.974,5.974
				C199.958,185.399,199.104,185.399,199.104,186.252z M461.931,426.039c-5.12,0-8.533,3.413-8.533,8.533v32.427l-9.387,9.387
				c-1.707,1.707-4.267,4.267-11.947-0.853c-1.707-0.853-3.413-3.413-3.413-5.973c-0.853-52.053-43.52-88.747-45.227-89.6
				l-112.64-112.64c-10.24-10.24-18.773-21.333-24.747-34.133l-23.04-46.933l13.653-13.653l17.92,17.92
				c1.707,1.707,3.413,2.56,5.973,2.56s4.267-0.853,5.973-2.56c3.413-3.413,3.413-8.533,0-11.947l-17.92-17.92l17.067-17.067
				l5.12,7.68c5.973,10.24,11.093,21.333,13.653,34.987c6.827,31.573,27.307,50.347,30.72,52.907l144.213,144.213
				c8.533,8.533,16.213,19.627,21.333,31.573l4.267,11.093H461.931z"/>
			<path d="M292.118,240.866c-3.413-3.413-8.533-3.413-11.947,0c-3.413,3.413-3.413,8.533,0,11.947l42.667,42.667
				c1.707,1.707,3.413,2.56,5.973,2.56c1.707,0,4.267-0.853,5.973-2.56c3.413-3.413,3.413-8.533,0-11.947L292.118,240.866z"/>
			<path d="M382.571,331.319c-3.413-3.413-8.533-3.413-11.947,0s-3.413,8.533,0,11.947l42.667,42.667
				c1.707,1.707,3.413,2.56,5.973,2.56c1.707,0,4.267-0.853,5.973-2.56c3.413-3.413,3.413-8.533,0-11.947L382.571,331.319z"/>
			<path d="M346.731,307.426c-3.413,3.413-3.413,8.533,0,11.947c3.413,3.413,8.533,3.413,11.947,0c3.413-3.413,3.413-8.533,0-11.947
				S350.144,304.012,346.731,307.426z"/>
		</g>
	</g>
</g>
<g>
</g>
<g>
</g>
<g>
</g>
<g>
</g>
<g>
</g>
<g>
</g>
<g>
</g>
<g>
</g>
<g>
</g>
<g>
</g>
<g>
</g>
<g>
</g>
<g>
</g>
<g>
</g>
<g>
</g>
</svg>
